<svg xmlns="http://www.w3.org/2000/svg" viewBox="0 0 1200 260" width="1200" height="260"><defs>
  <marker id="stArrow" markerWidth="10" markerHeight="10" refX="8" refY="3" orient="auto" markerUnits="strokeWidth">
    <path d="M0,0 L0,6 L8,3 z" fill="#475569"/>
  </marker>
</defs><rect x="0" y="0" width="1200" height="260" fill="#f8fafc"/><text x="600.0" y="34" text-anchor="middle" font-family="Segoe UI, Arial, sans-serif" font-size="19" font-weight="800" fill="#0f172a">State — Observation Lifecycle</text><text x="600.0" y="55" text-anchor="middle" font-family="Segoe UI, Arial, sans-serif" font-size="11" fill="#64748b">09-observation-lifecycle.md — owned entirely by the Observation Collector</text>
<g>
  <rect x="33" y="113" width="150" height="60" rx="10" fill="#000" opacity="0.12"/>
  <rect x="30" y="110" width="150" height="60" rx="10" fill="#334155" stroke="#64748b" stroke-width="2.2"/>
  <text x="105.0" y="145.0" text-anchor="middle" font-family="Segoe UI, Arial, sans-serif" font-size="13" font-weight="700" fill="#ffffff">STARTED</text>
</g>
<g>
  <rect x="233" y="113" width="150" height="60" rx="10" fill="#000" opacity="0.12"/>
  <rect x="230" y="110" width="150" height="60" rx="10" fill="#7c2d12" stroke="#f97316" stroke-width="2.2"/>
  <text x="305.0" y="145.0" text-anchor="middle" font-family="Segoe UI, Arial, sans-serif" font-size="13" font-weight="700" fill="#ffffff">COLLECTING</text>
</g>
<g>
  <rect x="433" y="113" width="150" height="60" rx="10" fill="#000" opacity="0.12"/>
  <rect x="430" y="110" width="150" height="60" rx="10" fill="#1e3a8a" stroke="#3b82f6" stroke-width="2.2"/>
  <text x="505.0" y="145.0" text-anchor="middle" font-family="Segoe UI, Arial, sans-serif" font-size="13" font-weight="700" fill="#ffffff">COMPLETED</text>
</g>
<g>
  <rect x="633" y="113" width="150" height="60" rx="10" fill="#000" opacity="0.12"/>
  <rect x="630" y="110" width="150" height="60" rx="10" fill="#581c87" stroke="#a855f7" stroke-width="2.2"/>
  <text x="705.0" y="145.0" text-anchor="middle" font-family="Segoe UI, Arial, sans-serif" font-size="13" font-weight="700" fill="#ffffff">BUILDING</text>
</g>
<g>
  <rect x="833" y="113" width="150" height="60" rx="10" fill="#000" opacity="0.12"/>
  <rect x="830" y="110" width="150" height="60" rx="10" fill="#166534" stroke="#22c55e" stroke-width="2.2"/>
  <text x="905.0" y="145.0" text-anchor="middle" font-family="Segoe UI, Arial, sans-serif" font-size="13" font-weight="700" fill="#ffffff">SENDING</text>
</g>
<g>
  <rect x="1033" y="113" width="140" height="60" rx="10" fill="#000" opacity="0.12"/>
  <rect x="1030" y="110" width="140" height="60" rx="10" fill="#334155" stroke="#64748b" stroke-width="2.2"/>
  <text x="1100.0" y="145.0" text-anchor="middle" font-family="Segoe UI, Arial, sans-serif" font-size="13" font-weight="700" fill="#ffffff">ARCHIVED</text>
</g><path d="M 180 140 L 230 140" stroke="#475569" stroke-width="2" fill="none" marker-end="url(#stArrow)"/><rect x="170.0" y="130.0" width="70" height="18" fill="#ffffff" stroke="#475569" stroke-width="0.8" rx="4"/><text x="205.0" y="143.0" text-anchor="middle" font-size="9" fill="#475569" font-family="Segoe UI, Arial, sans-serif" font-weight="700">1st Event</text><path d="M 380 140 L 430 140" stroke="#475569" stroke-width="2" fill="none" marker-end="url(#stArrow)"/><rect x="343.0" y="123.0" width="124" height="32" fill="#ffffff" stroke="#475569" stroke-width="0.8" rx="4"/><text x="405.0" y="136.0" text-anchor="middle" font-size="9" fill="#475569" font-family="Segoe UI, Arial, sans-serif" font-weight="700">end signal /</text><text x="405.0" y="150.0" text-anchor="middle" font-size="9" fill="#475569" font-family="Segoe UI, Arial, sans-serif" font-weight="700">timeout / shutdown</text><path d="M 580 140 L 630 140" stroke="#475569" stroke-width="2" fill="none" marker-end="url(#stArrow)"/><rect x="549.0" y="123.0" width="112" height="32" fill="#ffffff" stroke="#475569" stroke-width="0.8" rx="4"/><text x="605.0" y="136.0" text-anchor="middle" font-size="9" fill="#475569" font-family="Segoe UI, Arial, sans-serif" font-weight="700">Collector</text><text x="605.0" y="150.0" text-anchor="middle" font-size="9" fill="#475569" font-family="Segoe UI, Arial, sans-serif" font-weight="700">triggers Builder</text><path d="M 780 140 L 830 140" stroke="#475569" stroke-width="2" fill="none" marker-end="url(#stArrow)"/><rect x="770.0" y="130.0" width="70" height="18" fill="#ffffff" stroke="#475569" stroke-width="0.8" rx="4"/><text x="805.0" y="143.0" text-anchor="middle" font-size="9" fill="#475569" font-family="Segoe UI, Arial, sans-serif" font-weight="700">Validated</text><path d="M 980 140 L 1030 140" stroke="#475569" stroke-width="2" fill="none" marker-end="url(#stArrow)"/><rect x="961.0" y="130.0" width="88" height="18" fill="#ffffff" stroke="#475569" stroke-width="0.8" rx="4"/><text x="1005.0" y="143.0" text-anchor="middle" font-size="9" fill="#475569" font-family="Segoe UI, Arial, sans-serif" font-weight="700">202 Accepted</text></svg>