<svg xmlns="http://www.w3.org/2000/svg" viewBox="0 0 1150 1070" width="1150" height="1070"><defs>
  <marker id="seqArrow" markerWidth="10" markerHeight="10" refX="8" refY="3" orient="auto" markerUnits="strokeWidth">
    <path d="M0,0 L0,6 L8,3 z" fill="#1e293b"/>
  </marker>
</defs>
<rect x="0" y="0" width="1150" height="1070" fill="#f8fafc"/>
<text x="575.0" y="30" text-anchor="middle" font-family="Segoe UI, Arial, sans-serif" font-size="20" font-weight="800" fill="#0f172a">Sequence — Event to Queued Observation</text>
<text x="575.0" y="50" text-anchor="middle" font-family="Segoe UI, Arial, sans-serif" font-size="11.5" fill="#64748b">CrewAI example: multiple Events collected into one Observation, then handed to Transport (08-internal-architecture.md / 09-observation-lifecycle.md)</text>
<rect x="18" y="70" width="144" height="36" rx="6" fill="#334155" /><text x="90" y="93" text-anchor="middle" fill="#ffffff" font-size="11.5" font-weight="700" font-family="Segoe UI, Arial, sans-serif">CrewAI Agent</text><line x1="90" y1="110" x2="90" y2="1010" stroke="#cbd5e1" stroke-width="1.5" stroke-dasharray="4,3"/><rect x="208" y="70" width="144" height="36" rx="6" fill="#7c2d12" /><text x="280" y="93" text-anchor="middle" fill="#ffffff" font-size="11.5" font-weight="700" font-family="Segoe UI, Arial, sans-serif">Adapter</text><line x1="280" y1="110" x2="280" y2="1010" stroke="#cbd5e1" stroke-width="1.5" stroke-dasharray="4,3"/><rect x="378" y="70" width="144" height="36" rx="6" fill="#1e3a8a" /><text x="450" y="93" text-anchor="middle" fill="#ffffff" font-size="11.5" font-weight="700" font-family="Segoe UI, Arial, sans-serif">Pipeline</text><line x1="450" y1="110" x2="450" y2="1010" stroke="#cbd5e1" stroke-width="1.5" stroke-dasharray="4,3"/><rect x="538" y="70" width="144" height="36" rx="6" fill="#166534" /><text x="610" y="93" text-anchor="middle" fill="#ffffff" font-size="11.5" font-weight="700" font-family="Segoe UI, Arial, sans-serif">Collector</text><line x1="610" y1="110" x2="610" y2="1010" stroke="#cbd5e1" stroke-width="1.5" stroke-dasharray="4,3"/><rect x="688" y="70" width="144" height="36" rx="6" fill="#581c87" /><text x="760" y="93" text-anchor="middle" fill="#ffffff" font-size="11.5" font-weight="700" font-family="Segoe UI, Arial, sans-serif">Builder</text><line x1="760" y1="110" x2="760" y2="1010" stroke="#cbd5e1" stroke-width="1.5" stroke-dasharray="4,3"/><rect x="828" y="70" width="144" height="36" rx="6" fill="#78350f" /><text x="900" y="93" text-anchor="middle" fill="#ffffff" font-size="11.5" font-weight="700" font-family="Segoe UI, Arial, sans-serif">Validator</text><line x1="900" y1="110" x2="900" y2="1010" stroke="#cbd5e1" stroke-width="1.5" stroke-dasharray="4,3"/><rect x="958" y="70" width="144" height="36" rx="6" fill="#7f1d1d" /><text x="1030" y="93" text-anchor="middle" fill="#ffffff" font-size="11.5" font-weight="700" font-family="Segoe UI, Arial, sans-serif">Transport Queue</text><line x1="1030" y1="110" x2="1030" y2="1010" stroke="#cbd5e1" stroke-width="1.5" stroke-dasharray="4,3"/><line x1="90" y1="140" x2="280" y2="140" stroke="#1e293b" stroke-width="1.6"  marker-end="url(#seqArrow)"/><rect x="85.0" y="120" width="200" height="16" fill="#f8fafc"/><text x="185.0" y="132" text-anchor="middle" font-size="10" fill="#1e293b" font-family="Segoe UI, Arial, sans-serif" font-weight="600">Tool Started (Callback)</text><line x1="280" y1="190" x2="450" y2="190" stroke="#1e293b" stroke-width="1.6"  marker-end="url(#seqArrow)"/><rect x="265.0" y="170" width="200" height="16" fill="#f8fafc"/><text x="365.0" y="182" text-anchor="middle" font-size="10" fill="#1e293b" font-family="Segoe UI, Arial, sans-serif" font-weight="600">EVENT signal</text><line x1="450" y1="240" x2="610" y2="240" stroke="#1e293b" stroke-width="1.6"  marker-end="url(#seqArrow)"/><rect x="430.0" y="220" width="200" height="16" fill="#f8fafc"/><text x="530.0" y="232" text-anchor="middle" font-size="10" fill="#1e293b" font-family="Segoe UI, Arial, sans-serif" font-weight="600">forward Event</text><rect x="620" y="276" width="280" height="26" rx="4" fill="#fef9c3" stroke="#eab308" stroke-width="1"/><text x="630" y="293" font-size="10" fill="#78350f" font-family="Segoe UI, Arial, sans-serif">start Observation (first Event)</text><line x1="90" y1="340" x2="280" y2="340" stroke="#1e293b" stroke-width="1.6"  marker-end="url(#seqArrow)"/><rect x="85.0" y="320" width="200" height="16" fill="#f8fafc"/><text x="185.0" y="332" text-anchor="middle" font-size="10" fill="#1e293b" font-family="Segoe UI, Arial, sans-serif" font-weight="600">Tool Finished (Callback)</text><line x1="280" y1="390" x2="450" y2="390" stroke="#1e293b" stroke-width="1.6"  marker-end="url(#seqArrow)"/><rect x="265.0" y="370" width="200" height="16" fill="#f8fafc"/><text x="365.0" y="382" text-anchor="middle" font-size="10" fill="#1e293b" font-family="Segoe UI, Arial, sans-serif" font-weight="600">EVENT signal</text><line x1="450" y1="440" x2="610" y2="440" stroke="#1e293b" stroke-width="1.6"  marker-end="url(#seqArrow)"/><rect x="430.0" y="420" width="200" height="16" fill="#f8fafc"/><text x="530.0" y="432" text-anchor="middle" font-size="10" fill="#1e293b" font-family="Segoe UI, Arial, sans-serif" font-weight="600">forward Event</text><line x1="90" y1="490" x2="280" y2="490" stroke="#1e293b" stroke-width="1.6"  marker-end="url(#seqArrow)"/><rect x="85.0" y="470" width="200" height="16" fill="#f8fafc"/><text x="185.0" y="482" text-anchor="middle" font-size="10" fill="#1e293b" font-family="Segoe UI, Arial, sans-serif" font-weight="600">Task Finished (Callback)</text><line x1="280" y1="540" x2="450" y2="540" stroke="#1e293b" stroke-width="1.6"  marker-end="url(#seqArrow)"/><rect x="265.0" y="520" width="200" height="16" fill="#f8fafc"/><text x="365.0" y="532" text-anchor="middle" font-size="10" fill="#1e293b" font-family="Segoe UI, Arial, sans-serif" font-weight="600">OBSERVATION_COMPLETED signal</text><line x1="450" y1="590" x2="610" y2="590" stroke="#1e293b" stroke-width="1.6"  marker-end="url(#seqArrow)"/><rect x="430.0" y="570" width="200" height="16" fill="#f8fafc"/><text x="530.0" y="582" text-anchor="middle" font-size="10" fill="#1e293b" font-family="Segoe UI, Arial, sans-serif" font-weight="600">forward signal</text><rect x="620" y="626" width="280" height="26" rx="4" fill="#fef9c3" stroke="#eab308" stroke-width="1"/><text x="630" y="643" font-size="10" fill="#78350f" font-family="Segoe UI, Arial, sans-serif">detect completion, finalize Events</text><line x1="610" y1="690" x2="760" y2="690" stroke="#1e293b" stroke-width="1.6"  marker-end="url(#seqArrow)"/><rect x="585.0" y="670" width="200" height="16" fill="#f8fafc"/><text x="685.0" y="682" text-anchor="middle" font-size="10" fill="#1e293b" font-family="Segoe UI, Arial, sans-serif" font-weight="600">trigger build (Events)</text><rect x="770" y="726" width="280" height="26" rx="4" fill="#fef9c3" stroke="#eab308" stroke-width="1"/><text x="780" y="743" font-size="10" fill="#78350f" font-family="Segoe UI, Arial, sans-serif">construct ASES JSON (stateless)</text><line x1="760" y1="790" x2="900" y2="790" stroke="#1e293b" stroke-width="1.6"  marker-end="url(#seqArrow)"/><rect x="730.0" y="770" width="200" height="16" fill="#f8fafc"/><text x="830.0" y="782" text-anchor="middle" font-size="10" fill="#1e293b" font-family="Segoe UI, Arial, sans-serif" font-weight="600">validate</text><rect x="910" y="826" width="280" height="26" rx="4" fill="#fef9c3" stroke="#eab308" stroke-width="1"/><text x="920" y="843" font-size="10" fill="#78350f" font-family="Segoe UI, Arial, sans-serif">confirm schema compliance</text><line x1="900" y1="890" x2="1030" y2="890" stroke="#1e293b" stroke-width="1.6"  marker-end="url(#seqArrow)"/><rect x="865.0" y="870" width="200" height="16" fill="#f8fafc"/><text x="965.0" y="882" text-anchor="middle" font-size="10" fill="#1e293b" font-family="Segoe UI, Arial, sans-serif" font-weight="600">enqueue Observation</text><rect x="100" y="926" width="280" height="26" rx="4" fill="#fef9c3" stroke="#eab308" stroke-width="1"/><text x="110" y="943" font-size="10" fill="#78350f" font-family="Segoe UI, Arial, sans-serif">Agent continues immediately — no wait</text></svg>